<svg id="Calque_1" data-name="Calque 1" xmlns="http://www.w3.org/2000/svg" viewBox="0 0 500 500"><g id="Calque_2" data-name="Calque 2"><g id="Calque_1-2" data-name="Calque 1-2"><path d="M471,145.39l.21.11c-9.33-18.42-24.93-34.13-43.49-42.45-27.34-12.18-56.07-13.68-89.91-2.08-24.42,8.38-43.24,24.34-54.16,48.37-3.72,8.19-6.23,16.84-4.95,25.95,1.43,10.24,8.72,16.08,18.81,15.73,8.58-.3,15.26-7.61,16.58-17.07,1.56-11.06,2.5-22.48,6-33,9.64-29.27,29.11-40.9,60.13-40,2.93.09,5.83.28,8.64.6a60.64,60.64,0,0,1,13.7,2.93c8.24,3.09,15.59,7.21,21.64,15.67,18.32,25.59,24.45,63.72,23.88,128s-11.62,108.82-27.23,128c-13.08,16-28.75,29.49-65.88,24-29.14-4.29-64.21-23.15-99.7-140.39-14.58-48.17-27-78.89-38.36-100.7l.33.34c-8.84-14.8-18.84-28.75-32-40.1-18.32-15.82-40.09-22.9-63.8-25.07-27.13-2.5-52.37,2.49-74.18,19.6-21.64,17-32.58,41.35-28.35,69.48,2.75,18.44,12.93,32.65,26,45.14,12.54,12,27.71,21,42.72,29.32,19.62,10.87,39.59,21.13,59,32.36,11.88,6.88,22.43,15.82,29,28.26,10.83,20.56,5.28,46.4-12.63,62.38-15.76,14.09-34.5,19.57-55.27,19.21-31-.54-50.66-13.92-59-43.62-3-10.65-3.39-22.08-4.44-33.21-.89-9.5-7.23-17.11-15.81-17.79-10-.82-17.59,4.68-19.49,14.84-1.67,9,.42,17.8,3.77,26.15,9.81,24.51,28.05,40.9,51.89,50.79,29.89,12.39,60.16,11.47,90.07-.46,19-7.59,34.27-20,44.42-38,14.22-25.21,12.08-65.57-9.84-90.95-13.06-15.11-29.14-26.46-46.52-35.45C122.92,222,102.89,212.23,83.08,202c-11.66-6-22.23-13.47-29.86-24.39a47.59,47.59,0,0,1-5.38-44.12c6-15.72,18.63-24.79,33.76-30.65,16.34-6.33,33.13-5.52,50-2.5,25.74,4.66,40.74,14.15,58.56,30.45,1,.89,1.92,1.83,2.83,2.79L197,137.9a141.22,141.22,0,0,1,13.37,18.32C229.14,186.79,242.3,238.9,262,295.49c27.74,79.86,58.05,98.1,75.71,105.41s74.78,15.76,112.7-26.12c35.21-38.86,39.18-93.89,40.9-120.18C492.55,235.78,491.51,183.84,471,145.39Z"/></g></g></svg>